Coordinates
version=1
nRows=8
nColumns=63
inDegrees=yes

Units are S.I. units (second, meters, Newtons, ...)
If the header above contains a line with 'inDegrees', this indicates whether rotational values are in degrees (yes) or radians (no).

endheader
time	pelvis_tilt	pelvis_list	pelvis_rotation	pelvis_tx	pelvis_ty	pelvis_tz	hip_flexion_r	hip_adduction_r	hip_rotation_r	knee_angle_r	knee_angle_r_beta	ankle_angle_r	subtalar_angle_r	mtp_angle_r	hip_flexion_l	hip_adduction_l	hip_rotation_l	knee_angle_l	knee_angle_l_beta	ankle_angle_l	subtalar_angle_l	mtp_angle_l	L5_S1_Flex_Ext	L5_S1_Lat_Bending	L5_S1_axial_rotation	L4_L5_Flex_Ext	L4_L5_Lat_Bending	L4_L5_axial_rotation	L3_L4_Flex_Ext	L3_L4_Lat_Bending	L3_L4_axial_rotation	L2_L3_Flex_Ext	L2_L3_Lat_Bending	L2_L3_axial_rotation	L1_L2_Flex_Ext	L1_L2_Lat_Bending	L1_L2_axial_rotation	L1_T12_Flex_Ext	L1_T12_Lat_Bending	L1_T12_axial_rotation	Abs_r3	Abs_r2	Abs_r1	Abs_t1	Abs_t2	neck_flexion	neck_bending	neck_rotation	arm_flex_r	arm_add_r	arm_rot_r	elbow_flex_r	pro_sup_r	wrist_flex_r	wrist_dev_r	arm_flex_l	arm_add_l	arm_rot_l	elbow_flex_l	pro_sup_l	wrist_flex_l	wrist_dev_l
      1.30508475	      1.04086450	      2.36872157	     88.09408037	      0.26173082	      0.94618966	      0.56188711	     -5.18746407	      0.05683145	     -3.01821050	     10.05434235	      0.17548138	     34.21707519	     -1.06457599	      0.00000000	     -6.34301704	     -0.07996785	     14.63356832	      1.10294761	      0.01925007	     33.39252696	    -14.83315332	      0.00000000	     -0.11522640	      0.13286137	      1.16552750	     -0.21398696	      0.17670563	      1.23837297	     -0.18930546	      0.32303914	      1.23837297	     -0.13169226	      0.32303914	      1.01983656	     -0.10699924	      0.27093091	      0.94699109	     -0.06584037	      0.20580227	      0.87414562	     -0.82305069	      1.50295442	      6.48231429	      0.00000000	      0.00000000	     17.91084987	      2.48316325	     -0.93437530	      8.93609534	     -2.84046730	     49.56096051	     31.61805611	     39.03678389	     -0.70525783	     12.68919343	     15.24354456	     -4.69770540	     64.94214155	     36.79295754	     34.07960983	      3.14562971	      4.96784786
      1.32203390	      1.08911158	      2.31354576	     87.79072645	      0.26276355	      0.94617878	      0.56121282	     -5.10527393	      0.08386286	     -3.33100034	     10.19309367	      0.17790305	     34.32392974	     -0.31601706	      0.00000000	     -6.24866309	     -0.12112927	     11.68627828	      1.43136006	      0.02498195	     34.42756061	    -11.83354883	      0.00000000	     -0.11892116	      0.13522213	      1.24402319	     -0.22084849	      0.17984543	      1.32177464	     -0.19537558	      0.32877908	      1.32177464	     -0.13591500	      0.32877908	      1.08852029	     -0.11043019	      0.27574496	      1.01076884	     -0.06795155	      0.20945908	      0.93301739	     -0.84944198	      1.52965975	      6.91888379	      0.00000000	      0.00000000	     18.38946478	      2.97802352	      0.04294760	      8.62607144	     -2.92812766	     47.98648223	     32.23115785	     40.72121319	      0.31587730	     13.35316552	     15.03732163	     -4.77287539	     63.75630256	     36.54785311	     37.76209404	      5.59948159	      5.10415132
      1.33898305	      1.04282044	      2.21585986	     88.33571140	      0.26306714	      0.94611172	      0.56022873	     -5.18659464	      0.27127278	     -2.60208809	     10.02621670	      0.17499049	     33.80605463	     -2.32171188	      0.00000000	     -6.11689702	     -0.15404425	     13.07125802	      1.57231823	      0.02744213	     34.28821844	    -13.39182683	      0.00000000	     -0.10810469	      0.11457505	      1.19872056	     -0.20076122	      0.15238481	      1.27364059	     -0.17760520	      0.27857777	      1.27364059	     -0.12355285	      0.27857777	      1.04888049	     -0.10038602	      0.23364144	      0.97396045	     -0.06177102	      0.17747675	      0.89904042	     -0.77218100	      1.29609585	      6.66692413	      0.00000000	      0.00000000	     18.93427141	      3.09804590	     -0.14674554	      8.22665995	     -2.87615607	     46.76064790	     32.79060234	     42.78839941	      0.44564023	     13.89978631	     14.90446369	     -4.86327821	     63.41083133	     36.22836174	     41.56626769	      7.13264604	      5.18010607
      1.35593220	      0.90219343	      2.08378880	     88.66855818	      0.26360254	      0.94599088	      0.55935761	     -5.13620611	      0.21989473	     -2.98588448	     10.04054550	      0.17524058	     33.73777516	     -2.50593375	      0.00000000	     -5.88006238	     -0.07392665	     12.29544104	      1.86231613	      0.03250355	     34.92889204	    -12.18263453	      0.00000000	     -0.08970107	      0.08192259	      1.21107710	     -0.16658385	      0.10895704	      1.28676942	     -0.14736988	      0.19918658	      1.28676942	     -0.10251935	      0.19918658	      1.05969246	     -0.08329641	      0.16705654	      0.98400015	     -0.05125519	      0.12689809	      0.90830783	     -0.64072574	      0.92672471	      6.73564752	      0.00000000	      0.00000000	     19.55416841	      3.09828748	     -0.79252914	      8.01629849	     -2.83315050	     46.77286313	     32.92747805	     42.43998846	      0.54351104	     14.34524912	     15.10372865	     -4.80373750	     64.78438876	     35.46797565	     42.72456011	      8.38408622	      5.22608471
      1.37288136	      0.74231382	      1.93026580	     88.81250154	      0.26418428	      0.94577239	      0.55837942	     -5.08953251	      0.11404171	     -3.12488387	      9.97686759	      0.17412919	     33.69413651	     -2.69240283	      0.00000000	     -5.72944625	      0.05721562	     12.47002662	      1.92296437	      0.03356206	     35.26265907	    -12.22635093	      0.00000000	     -0.06605613	      0.05533008	      1.21824892	     -0.12267284	      0.07358901	      1.29438948	     -0.10852362	      0.13452956	      1.29438948	     -0.07549555	      0.13452956	      1.06596781	     -0.06133972	      0.11282910	      0.98982725	     -0.03774447	      0.08570629	      0.91368669	     -0.47183234	      0.62590494	      6.77553503	      0.00000000	      0.00000000	     20.23962428	      3.01613822	     -1.00194399	      7.85713903	     -2.71250191	     47.17342179	     32.73581971	     42.48511397	      0.40091378	     14.71810795	     14.87504598	     -4.58701329	     65.48996963	     34.81058034	     42.98536084	      8.25696541	      5.60631802
      1.38983051	      0.51093546	      1.83575343	     89.43347645	      0.26409489	      0.94551875	      0.55785766	     -5.12481598	      0.01471597	     -3.11522899	      9.89142100	      0.17263786	     33.53817908	     -3.76514352	      0.00000000	     -5.45008807	      0.24715230	     13.12805646	      2.24865298	      0.03924640	     35.57875268	    -12.17593492	      0.00000000	     -0.05348789	      0.01071577	      1.21091070	     -0.09933236	      0.01425197	      1.28659262	     -0.08787525	      0.02605432	      1.28659262	     -0.06113131	      0.02605432	      1.05954686	     -0.04966885	      0.02185159	      0.98386494	     -0.03056298	      0.01659872	      0.90818302	     -0.38205863	      0.12121890	      6.73472203	      0.00000000	      0.00000000	     20.77607532	      2.49513769	     -2.83570801	      7.67722692	     -2.61040906	     47.93090002	     32.60356418	     40.83534594	     -0.76813895	     14.80090176	     15.72361636	     -4.37846482	     69.74048708	     33.63870477	     43.44316745	      8.41524389	      4.79781254
      1.40677966	      0.36619810	      1.74140885	     89.82838376	      0.26385030	      0.94514562	      0.55735596	     -5.18638764	     -0.06910661	     -3.18153844	      9.70762364	      0.16943000	     33.49656983	     -4.23531184	      0.00000000	     -5.25334420	      0.38605955	     13.59157623	      2.43520976	      0.04250243	     35.86708434	    -12.01382512	      0.00000000	     -0.03659575	     -0.00919519	      1.17094678	     -0.06796197	     -0.01222961	      1.24413095	     -0.06012316	     -0.02235719	      1.24413095	     -0.04182529	     -0.02235719	      1.02457843	     -0.03398282	     -0.01875084	      0.95139426	     -0.02091081	     -0.01424335	      0.87821008	     -0.26139980	     -0.10401786	      6.51245469	      0.00000000	      0.00000000	     21.11568702	      2.03053102	     -3.63514875	      7.66281434	     -2.53076109	     48.99447010	     32.17614110	     40.61787253	     -1.39029783	     14.83044305	     15.83610039	     -4.07919617	     71.58098079	     32.93830568	     43.24650588	      7.94577310	      5.42912051
      1.42372881	      0.31441178	      1.76508201	     89.82949846	      0.26393004	      0.94478418	      0.55644521	     -5.30929719	     -0.12986803	     -3.13200273	      9.64651622	      0.16836347	     33.64294914	     -4.26548291	      0.00000000	     -5.32843406	      0.46587170	     13.67142563	      2.46917250	      0.04309519	     35.96106806	    -11.98792542	      0.00000000	     -0.02466367	     -0.01157038	      1.16104877	     -0.04580290	     -0.01538861	      1.23361432	     -0.04051994	     -0.02813222	      1.23361432	     -0.02818811	     -0.02813222	      1.01591767	     -0.02290268	     -0.02359432	      0.94335213	     -0.01409282	     -0.01792252	      0.87078658	     -0.17617012	     -0.13088645	      6.45740495	      0.00000000	      0.00000000	     21.30439978	      1.95053553	     -3.66815434	      7.39158491	     -2.42252705	     49.13574973	     31.84786214	     40.61800655	     -1.50842129	     14.84882432	     15.43794385	     -3.91425772	     71.84325151	     32.60498304	     43.24830727	      7.81399966	      5.56132169
